<svg width="62" height="58" viewBox="0 0 62 58" fill="none" xmlns="http://www.w3.org/2000/svg">
<g id="Champagne">
<path id="Vector" d="M44.5624 4.53125C44.5624 3.99353 44.7329 3.46789 45.0522 3.02079C45.3715 2.5737 45.8254 2.22523 46.3565 2.01945C46.8875 1.81368 47.4719 1.75984 48.0356 1.86474C48.5994 1.96964 49.1172 2.22858 49.5237 2.6088C49.9301 2.98903 50.2069 3.47346 50.3191 4.00085C50.4312 4.52824 50.3736 5.07489 50.1537 5.57167C49.9337 6.06846 49.5612 6.49307 49.0833 6.79181C48.6054 7.09055 48.0435 7.25 47.4687 7.25C46.6979 7.25 45.9587 6.96356 45.4136 6.4537C44.8686 5.94383 44.5624 5.25231 44.5624 4.53125ZM39.7477 16.5912C41.506 26.6166 40.8012 33.7555 37.6504 37.811C36.8784 38.8311 35.8889 39.6904 34.7443 40.335C33.5997 40.9796 32.3248 41.3953 30.9999 41.5561V52.5625H34.8749C35.3888 52.5625 35.8816 52.7535 36.2449 53.0934C36.6083 53.4333 36.8124 53.8943 36.8124 54.375C36.8124 54.8557 36.6083 55.3167 36.2449 55.6566C35.8816 55.9965 35.3888 56.1875 34.8749 56.1875H23.2499C22.7361 56.1875 22.2432 55.9965 21.8799 55.6566C21.5165 55.3167 21.3124 54.8557 21.3124 54.375C21.3124 53.8943 21.5165 53.4333 21.8799 53.0934C22.2432 52.7535 22.7361 52.5625 23.2499 52.5625H27.1249V41.5561C25.8003 41.3945 24.5257 40.9784 23.3812 40.3339C22.2367 39.6894 21.247 38.8305 20.4744 37.811C17.326 33.7555 16.6212 26.6166 18.3795 16.5912C19.1971 12.0147 20.3469 7.49566 21.821 3.06539C21.9474 2.70122 22.1938 2.38383 22.5249 2.15875C22.856 1.93367 23.2548 1.81246 23.6641 1.8125H34.4632C34.8725 1.81246 35.2713 1.93367 35.6024 2.15875C35.9335 2.38383 36.1799 2.70122 36.3062 3.06539C37.7803 7.49566 38.9302 12.0147 39.7477 16.5912ZM22.7171 14.5H35.4077C34.6812 10.9702 33.7802 7.74617 33.0391 5.4375H25.0881C24.347 7.74617 23.4509 10.9702 22.7171 14.5ZM36.0858 18.125H22.039C20.9516 24.9219 20.7941 32.0677 23.6011 35.6813C24.8556 37.2831 26.6405 38.0625 29.0624 38.0625C31.4843 38.0625 33.2716 37.2831 34.5165 35.6813C37.321 32.0677 37.166 24.9219 36.0858 18.125ZM53.2812 9.0625C52.7064 9.0625 52.1445 9.22195 51.6665 9.52069C51.1886 9.81943 50.8161 10.244 50.5961 10.7408C50.3762 11.2376 50.3186 11.7843 50.4308 12.3117C50.5429 12.839 50.8197 13.3235 51.2261 13.7037C51.6326 14.0839 52.1504 14.3429 52.7142 14.4478C53.2779 14.5527 53.8623 14.4988 54.3933 14.293C54.9244 14.0873 55.3783 13.7388 55.6976 13.2917C56.017 12.8446 56.1874 12.319 56.1874 11.7813C56.1874 11.0602 55.8812 10.3687 55.3362 9.8588C54.7912 9.34894 54.0519 9.0625 53.2812 9.0625ZM47.4687 19.9375C46.8939 19.9375 46.332 20.097 45.854 20.3957C45.3761 20.6944 45.0036 21.119 44.7836 21.6158C44.5637 22.1126 44.5061 22.6593 44.6183 23.1867C44.7304 23.714 45.0072 24.1985 45.4136 24.5787C45.8201 24.9589 46.3379 25.2179 46.9017 25.3228C47.4654 25.4277 48.0498 25.3738 48.5808 25.168C49.1119 24.9623 49.5658 24.6138 49.8851 24.1667C50.2045 23.7196 50.3749 23.194 50.3749 22.6563C50.3749 21.9352 50.0687 21.2437 49.5237 20.7338C48.9787 20.2239 48.2394 19.9375 47.4687 19.9375Z" fill="#495E57"/>
</g>
</svg>
