<svg width="62" height="62" viewBox="0 0 62 62" fill="none" xmlns="http://www.w3.org/2000/svg">
<path d="M27.0016 12.7463C26.5466 12.2925 25.9845 11.9605 25.3673 11.7812C24.7502 11.6018 24.0978 11.5807 23.4703 11.72C22.8429 11.8592 22.2606 12.1543 21.7773 12.5779C21.2939 13.0015 20.9251 13.54 20.7047 14.1438L7.99231 49.1108C7.78347 49.6874 7.71602 50.3057 7.7956 50.9138C7.87519 51.5219 8.09949 52.102 8.44968 52.6055C8.79987 53.1089 9.26573 53.521 9.80816 53.8072C10.3506 54.0933 10.9537 54.2452 11.567 54.25C12.0185 54.2469 12.466 54.165 12.8893 54.0078L47.8539 41.293C48.4579 41.0729 48.9967 40.7042 49.4205 40.221C49.8444 39.7378 50.1397 39.1555 50.2792 38.5281C50.4187 37.9006 50.3979 37.2481 50.2186 36.6308C50.0394 36.0135 49.7076 35.4513 49.2538 34.9961L27.0016 12.7463ZM24.9842 45.4925L16.5076 37.0159L19.6948 28.2463L33.7538 42.3053L24.9842 45.4925ZM11.6639 50.3362L15.0545 41.0338L20.976 46.9553L11.6639 50.3362ZM37.7814 40.8425L21.1576 24.2188L24.3061 15.5315L46.4493 37.6747L37.7814 40.8425ZM38.7501 17.4375C38.7865 16.1277 39.1037 14.8409 39.6801 13.6642C40.9637 11.0995 43.3856 9.6875 46.5001 9.6875C48.1228 9.6875 49.1642 9.13289 49.806 7.94133C50.1439 7.2747 50.3378 6.54443 50.3751 5.79797C50.377 5.28411 50.583 4.79207 50.9477 4.43008C51.3125 4.06809 51.806 3.86581 52.3199 3.86773C52.8337 3.86966 53.3258 4.07564 53.6878 4.44035C54.0498 4.80507 54.252 5.29864 54.2501 5.8125C54.2501 8.92703 52.1867 13.5625 46.5001 13.5625C44.8775 13.5625 43.8361 14.1171 43.1943 15.3087C42.8563 15.9753 42.6624 16.7056 42.6251 17.452C42.6242 17.7065 42.5731 17.9582 42.4749 18.1929C42.3766 18.4276 42.2331 18.6407 42.0525 18.8199C41.8719 18.9992 41.6578 19.1411 41.4224 19.2376C41.1869 19.334 40.9348 19.3832 40.6804 19.3823C40.4259 19.3813 40.1742 19.3303 39.9395 19.232C39.7048 19.1338 39.4917 18.9902 39.3125 18.8096C39.1332 18.6291 38.9913 18.4149 38.8948 18.1795C38.7983 17.9441 38.7492 17.6919 38.7501 17.4375ZM32.9376 9.6875V3.875C32.9376 3.36114 33.1418 2.86833 33.5051 2.50498C33.8685 2.14163 34.3613 1.9375 34.8751 1.9375C35.389 1.9375 35.8818 2.14163 36.2451 2.50498C36.6085 2.86833 36.8126 3.36114 36.8126 3.875V9.6875C36.8126 10.2014 36.6085 10.6942 36.2451 11.0575C35.8818 11.4209 35.389 11.625 34.8751 11.625C34.3613 11.625 33.8685 11.4209 33.5051 11.0575C33.1418 10.6942 32.9376 10.2014 32.9376 9.6875ZM57.5584 29.6292C57.7383 29.8092 57.8809 30.0229 57.9782 30.258C58.0754 30.4932 58.1255 30.7452 58.1253 30.9996C58.1252 31.2541 58.075 31.5061 57.9775 31.7411C57.88 31.9762 57.7372 32.1897 57.5572 32.3696C57.3772 32.5494 57.1635 32.6921 56.9284 32.7893C56.6932 32.8866 56.4412 32.9366 56.1868 32.9365C55.9323 32.9364 55.6804 32.8862 55.4453 32.7887C55.2102 32.6912 54.9967 32.5484 54.8168 32.3684L50.9418 28.4934C50.5783 28.1298 50.374 27.6367 50.374 27.1226C50.374 26.6084 50.5783 26.1154 50.9418 25.7518C51.3054 25.3882 51.7985 25.184 52.3126 25.184C52.8268 25.184 53.3199 25.3882 53.6834 25.7518L57.5584 29.6292ZM58.7379 19.2757L52.9254 21.2132C52.4378 21.3757 51.9057 21.3379 51.4461 21.1081C50.9864 20.8783 50.6369 20.4753 50.4744 19.9877C50.3119 19.5002 50.3497 18.9681 50.5795 18.5085C50.8094 18.0488 51.2124 17.6993 51.6999 17.5368L57.5124 15.5993C57.9999 15.4368 58.532 15.4746 58.9917 15.7044C59.4513 15.9342 59.8008 16.3372 59.9633 16.8248C60.1258 17.3123 60.088 17.8444 59.8582 18.304C59.6284 18.7637 59.2254 19.1132 58.7379 19.2757Z" fill="#495E57"/>
</svg>
