<svg width="62" height="62" viewBox="0 0 62 62" fill="none" xmlns="http://www.w3.org/2000/svg">
<path d="M50.375 7.75H44.5625V5.8125C44.5625 5.29864 44.3584 4.80583 43.995 4.44248C43.6317 4.07913 43.1389 3.875 42.625 3.875C42.1111 3.875 41.6183 4.07913 41.255 4.44248C40.8916 4.80583 40.6875 5.29864 40.6875 5.8125V7.75H21.3125V5.8125C21.3125 5.29864 21.1084 4.80583 20.745 4.44248C20.3817 4.07913 19.8889 3.875 19.375 3.875C18.8611 3.875 18.3683 4.07913 18.005 4.44248C17.6416 4.80583 17.4375 5.29864 17.4375 5.8125V7.75H11.625C10.5973 7.75 9.61166 8.15826 8.88496 8.88496C8.15826 9.61166 7.75 10.5973 7.75 11.625V50.375C7.75 51.4027 8.15826 52.3883 8.88496 53.115C9.61166 53.8417 10.5973 54.25 11.625 54.25H50.375C51.4027 54.25 52.3883 53.8417 53.115 53.115C53.8417 52.3883 54.25 51.4027 54.25 50.375V11.625C54.25 10.5973 53.8417 9.61166 53.115 8.88496C52.3883 8.15826 51.4027 7.75 50.375 7.75ZM17.4375 11.625V13.5625C17.4375 14.0764 17.6416 14.5692 18.005 14.9325C18.3683 15.2959 18.8611 15.5 19.375 15.5C19.8889 15.5 20.3817 15.2959 20.745 14.9325C21.1084 14.5692 21.3125 14.0764 21.3125 13.5625V11.625H40.6875V13.5625C40.6875 14.0764 40.8916 14.5692 41.255 14.9325C41.6183 15.2959 42.1111 15.5 42.625 15.5C43.1389 15.5 43.6317 15.2959 43.995 14.9325C44.3584 14.5692 44.5625 14.0764 44.5625 13.5625V11.625H50.375V19.375H11.625V11.625H17.4375ZM50.375 50.375H11.625V23.25H50.375V50.375ZM27.125 29.0625V44.5625C27.125 45.0764 26.9209 45.5692 26.5575 45.9325C26.1942 46.2959 25.7014 46.5 25.1875 46.5C24.6736 46.5 24.1808 46.2959 23.8175 45.9325C23.4541 45.5692 23.25 45.0764 23.25 44.5625V32.1964L22.1795 32.7341C21.7196 32.964 21.1872 33.0019 20.6994 32.8393C20.2116 32.6767 19.8084 32.3269 19.5784 31.867C19.3485 31.4071 19.3106 30.8747 19.4732 30.3869C19.6358 29.8991 19.9856 29.4959 20.4455 29.2659L24.3205 27.3284C24.616 27.1806 24.9444 27.1107 25.2745 27.1256C25.6046 27.1404 25.9254 27.2394 26.2064 27.4132C26.4875 27.587 26.7194 27.8297 26.8802 28.1184C27.041 28.4071 27.1252 28.7321 27.125 29.0625ZM41.4528 36.4371L36.8125 42.625H40.6875C41.2014 42.625 41.6942 42.8291 42.0575 43.1925C42.4209 43.5558 42.625 44.0486 42.625 44.5625C42.625 45.0764 42.4209 45.5692 42.0575 45.9325C41.6942 46.2959 41.2014 46.5 40.6875 46.5H32.9375C32.5777 46.5 32.225 46.3998 31.9189 46.2106C31.6128 46.0215 31.3655 45.7508 31.2045 45.429C31.0436 45.1071 30.9755 44.7469 31.0078 44.3885C31.0401 44.0301 31.1716 43.6879 31.3875 43.4L38.3577 34.1073C38.5162 33.8962 38.6299 33.655 38.6919 33.3984C38.7539 33.1418 38.7627 32.8752 38.718 32.6151C38.6732 32.3549 38.5757 32.1066 38.4316 31.8855C38.2874 31.6644 38.0996 31.475 37.8796 31.3291C37.6596 31.1832 37.4122 31.0837 37.1524 31.0369C36.8926 30.99 36.626 30.9968 36.3689 31.0567C36.1118 31.1166 35.8697 31.2284 35.6573 31.3852C35.445 31.542 35.267 31.7406 35.1341 31.9688C35.0107 32.1961 34.8429 32.3965 34.6408 32.5579C34.4386 32.7194 34.2062 32.8388 33.9572 32.909C33.7081 32.9792 33.4476 32.9988 33.1908 32.9667C32.9341 32.9345 32.6864 32.8513 32.4624 32.7219C32.2383 32.5925 32.0425 32.4195 31.8864 32.2132C31.7303 32.0069 31.6171 31.7714 31.5535 31.5206C31.4898 31.2698 31.4771 31.0088 31.516 30.753C31.5549 30.4972 31.6446 30.2518 31.7798 30.0312C32.4199 28.9237 33.4074 28.0582 34.5893 27.5689C35.7712 27.0797 37.0815 26.9939 38.317 27.325C39.5526 27.6561 40.6445 28.3856 41.4233 29.4003C42.2022 30.415 42.6246 31.6583 42.625 32.9375C42.6291 34.2011 42.2172 35.4309 41.4528 36.4371Z" fill="#495E57"/>
</svg>
