<svg width="62" height="58" viewBox="0 0 62 58" fill="none" xmlns="http://www.w3.org/2000/svg">
<path d="M59.2875 34.075C59.084 34.2178 58.8523 34.3217 58.6059 34.3808C58.3594 34.4399 58.1029 34.4529 57.851 34.4193C57.5991 34.3856 57.3568 34.3059 57.1379 34.1846C56.9189 34.0633 56.7277 33.9029 56.575 33.7125C55.4072 32.2441 53.8872 31.0526 52.1373 30.2341C50.3873 29.4156 48.4564 28.9929 46.5 29C46.119 29 45.7465 28.8948 45.429 28.6978C45.1115 28.5007 44.8632 28.2205 44.7151 27.8921C44.6145 27.6691 44.5627 27.4295 44.5627 27.1875C44.5627 26.9455 44.6145 26.7059 44.7151 26.4829C44.8632 26.1545 45.1115 25.8743 45.429 25.6772C45.7465 25.4801 46.119 25.375 46.5 25.375C47.5871 25.3749 48.6524 25.0896 49.5749 24.5515C50.4974 24.0135 51.2401 23.2441 51.7186 22.331C52.1971 21.4178 52.3923 20.3975 52.282 19.3857C52.1717 18.374 51.7603 17.4115 51.0945 16.6075C50.4288 15.8036 49.5353 15.1904 48.5157 14.8376C47.4961 14.4848 46.3912 14.4066 45.3264 14.6119C44.2617 14.8171 43.2798 15.2976 42.4923 15.9987C41.7049 16.6998 41.1433 17.5934 40.8716 18.5781C40.808 18.8087 40.6964 19.0253 40.5433 19.2156C40.3902 19.4058 40.1986 19.566 39.9793 19.687C39.76 19.808 39.5175 19.8873 39.2654 19.9206C39.0133 19.9539 38.7567 19.9404 38.5102 19.8809C38.2638 19.8214 38.0322 19.717 37.8288 19.5738C37.6254 19.4306 37.4542 19.2513 37.3249 19.0462C37.1956 18.841 37.1107 18.6141 37.0752 18.3783C37.0396 18.1425 37.054 17.9025 37.1177 17.6719C37.4949 16.3064 38.2076 15.0422 39.199 13.9797C40.1904 12.9172 41.4332 12.0859 42.8286 11.5519C44.2239 11.0178 45.7332 10.7958 47.2364 10.9034C48.7395 11.011 50.1951 11.4454 51.4873 12.1719C52.7795 12.8984 53.8726 13.897 54.6796 15.0882C55.4866 16.2794 55.9853 17.6304 56.136 19.0337C56.2867 20.4369 56.0852 21.8537 55.5475 23.1713C55.0099 24.4889 54.151 25.671 53.0391 26.6234C55.6736 27.6905 57.9638 29.3838 59.6823 31.5352C59.8349 31.7261 59.9458 31.9433 60.0086 32.1744C60.0714 32.4054 60.0848 32.6458 60.0482 32.8817C60.0115 33.1177 59.9254 33.3445 59.7949 33.5493C59.6644 33.754 59.492 33.9327 59.2875 34.075ZM46.2384 48.0312C46.3786 48.2375 46.4728 48.4682 46.5152 48.7094C46.5576 48.9506 46.5474 49.1974 46.4852 49.4348C46.4231 49.6723 46.3102 49.8955 46.1534 50.091C45.9966 50.2866 45.7992 50.4505 45.573 50.5728C45.3467 50.6951 45.0964 50.7734 44.837 50.8029C44.5776 50.8324 44.3145 50.8124 44.0635 50.7443C43.8126 50.6762 43.5789 50.5613 43.3767 50.4066C43.1744 50.2518 43.0077 50.0603 42.8866 49.8437C41.6661 47.9104 39.9278 46.3082 37.8433 45.1951C35.7588 44.0821 33.4002 43.4967 31 43.4967C28.5999 43.4967 26.2412 44.0821 24.1567 45.1951C22.0722 46.3082 20.334 47.9104 19.1134 49.8437C18.9923 50.0603 18.8256 50.2518 18.6233 50.4066C18.4211 50.5613 18.1874 50.6762 17.9365 50.7443C17.6855 50.8124 17.4224 50.8324 17.163 50.8029C16.9036 50.7734 16.6533 50.6951 16.427 50.5728C16.2008 50.4505 16.0034 50.2866 15.8466 50.091C15.6898 49.8955 15.577 49.6723 15.5148 49.4348C15.4526 49.1974 15.4424 48.9506 15.4848 48.7094C15.5272 48.4682 15.6214 48.2375 15.7616 48.0312C17.64 45.012 20.5041 42.6361 23.933 41.2525C22.0035 39.8706 20.5855 37.9577 19.8783 35.7829C19.171 33.6081 19.2101 31.2806 19.99 29.1276C20.7698 26.9746 22.2513 25.1043 24.2262 23.7797C26.201 22.4551 28.57 21.7427 31 21.7427C33.43 21.7427 35.799 22.4551 37.7738 23.7797C39.7487 25.1043 41.2302 26.9746 42.0101 29.1276C42.7899 31.2806 42.829 33.6081 42.1217 35.7829C41.4145 37.9577 39.9965 39.8706 38.067 41.2525C41.4959 42.6361 44.36 45.012 46.2384 48.0312ZM31 39.875C32.5328 39.875 34.0312 39.4498 35.3057 38.6532C36.5802 37.8565 37.5735 36.7242 38.1601 35.3995C38.7466 34.0747 38.9001 32.617 38.6011 31.2106C38.3021 29.8042 37.5639 28.5124 36.4801 27.4985C35.3962 26.4845 34.0153 25.794 32.512 25.5143C31.0086 25.2346 29.4503 25.3781 28.0342 25.9269C26.6181 26.4756 25.4077 27.4049 24.5561 28.5971C23.7045 29.7894 23.25 31.1911 23.25 32.625C23.25 34.5478 24.0665 36.3919 25.5199 37.7515C26.9733 39.1112 28.9446 39.875 31 39.875ZM17.4375 27.1875C17.4375 26.7068 17.2334 26.2458 16.87 25.9059C16.5067 25.566 16.0139 25.375 15.5 25.375C14.4129 25.3749 13.3476 25.0896 12.4251 24.5515C11.5026 24.0135 10.76 23.2441 10.2814 22.331C9.80289 21.4178 9.6077 20.3975 9.71801 19.3857C9.82833 18.374 10.2397 17.4115 10.9055 16.6075C11.5712 15.8036 12.4647 15.1904 13.4843 14.8376C14.5039 14.4848 15.6088 14.4066 16.6736 14.6119C17.7383 14.8171 18.7202 15.2976 19.5077 15.9987C20.2951 16.6998 20.8567 17.5934 21.1284 18.5781C21.2569 19.0438 21.5779 19.4427 22.0207 19.687C22.4635 19.9313 22.992 20.001 23.4898 19.8809C23.9876 19.7607 24.4139 19.4604 24.6751 19.0462C24.9363 18.6319 25.0108 18.1376 24.8823 17.6719C24.5051 16.3064 23.7924 15.0422 22.801 13.9797C21.8096 12.9172 20.5668 12.0859 19.1715 11.5519C17.7761 11.0178 16.2668 10.7958 14.7637 10.9034C13.2605 11.011 11.8049 11.4454 10.5127 12.1719C9.22053 12.8984 8.12744 13.897 7.32041 15.0882C6.51338 16.2794 6.01469 17.6304 5.86401 19.0337C5.71333 20.4369 5.91483 21.8537 6.45247 23.1713C6.99011 24.4889 7.84904 25.671 8.96094 26.6234C6.32905 27.6915 4.04142 29.3848 2.325 31.5352C2.01637 31.9198 1.88368 32.4033 1.95612 32.8794C2.02856 33.3555 2.30021 33.7851 2.71129 34.0739C3.12238 34.3626 3.63923 34.4867 4.14815 34.419C4.65707 34.3512 5.11637 34.0971 5.425 33.7125C6.5928 32.2441 8.11283 31.0526 9.86274 30.2341C11.6127 29.4156 13.5436 28.9929 15.5 29C16.0139 29 16.5067 28.809 16.87 28.4691C17.2334 28.1292 17.4375 27.6682 17.4375 27.1875Z" fill="#495E57"/>
</svg>
