<svg width="62" height="62" viewBox="0 0 62 62" fill="none" xmlns="http://www.w3.org/2000/svg">
<path d="M31 5.8125C26.0184 5.8125 21.1486 7.28972 17.0066 10.0574C12.8645 12.825 9.63618 16.7587 7.7298 21.3612C5.82341 25.9636 5.32462 31.0279 6.29648 35.9138C7.26835 40.7997 9.66722 45.2877 13.1898 48.8103C16.7123 52.3328 21.2003 54.7317 26.0862 55.7035C30.9721 56.6754 36.0364 56.1766 40.6388 54.2702C45.2413 52.3638 49.175 49.1355 51.9427 44.9934C54.7103 40.8514 56.1875 35.9816 56.1875 31C56.1805 24.322 53.5245 17.9196 48.8025 13.1975C44.0804 8.47549 37.678 5.81955 31 5.8125ZM31 52.3125C26.7848 52.3125 22.6642 51.0625 19.1594 48.7207C15.6546 46.3788 12.9229 43.0503 11.3098 39.1559C9.69674 35.2616 9.27468 30.9764 10.097 26.8421C10.9194 22.7079 12.9492 18.9104 15.9298 15.9298C18.9104 12.9492 22.7079 10.9194 26.8421 10.097C30.9764 9.27467 35.2616 9.69672 39.156 11.3098C43.0503 12.9229 46.3789 15.6546 48.7207 19.1594C51.0626 22.6642 52.3125 26.7848 52.3125 31C52.3061 36.6505 50.0586 42.0677 46.0631 46.0631C42.0677 50.0586 36.6505 52.3061 31 52.3125ZM46.5 31C46.5 31.5139 46.2959 32.0067 45.9325 32.37C45.5692 32.7334 45.0764 32.9375 44.5625 32.9375H31C30.4862 32.9375 29.9933 32.7334 29.63 32.37C29.2666 32.0067 29.0625 31.5139 29.0625 31V17.4375C29.0625 16.9236 29.2666 16.4308 29.63 16.0675C29.9933 15.7041 30.4862 15.5 31 15.5C31.5139 15.5 32.0067 15.7041 32.37 16.0675C32.7334 16.4308 32.9375 16.9236 32.9375 17.4375V29.0625H44.5625C45.0764 29.0625 45.5692 29.2666 45.9325 29.63C46.2959 29.9933 46.5 30.4861 46.5 31Z" fill="#495E57"/>
</svg>
